<svg xmlns="http://www.w3.org/2000/svg" width="100" height="71" viewBox="0 0 100 71"><path fill-rule="evenodd" clip-rule="evenodd" fill="#71B4D5" d="M95.5 68.947H52.65c-1.99 0-3.6-1.613-3.6-3.6v-3.312H24.9v3c0 1.986-1.612 3.6-3.6 3.6H4.5c-1.988 0-3.6-1.613-3.6-3.6V38.652c0-1.988 1.61-3.6 3.6-3.6h6.6v-29.4c0-1.988 1.612-3.6 3.6-3.6h64.8c1.99 0 3.6 1.61 3.6 3.6V26.99h12.4c1.99 0 3.6 1.612 3.6 3.6v34.76c0 1.986-1.612 3.6-3.6 3.6zM6.056 38.033c-1.192 0-2.16.967-2.16 2.158v23.29c0 1.195.968 2.16 2.16 2.16H19.75c1.19 0 2.158-.965 2.158-2.16V40.19c0-1.19-.967-2.157-2.16-2.157H6.058zm74.052-30.84c0-1.194-.967-2.16-2.16-2.16H16.256c-1.193 0-2.16.966-2.16 2.16v27.86H21.3c1.988 0 3.6 1.61 3.6 3.6V59.02l24.15.017V30.59c0-1.987 1.61-3.6 3.6-3.6h27.46V7.192zm16 24.937c0-1.193-.967-2.16-2.16-2.16H54.205c-1.193 0-2.16.967-2.16 2.16v31.66c0 1.192.967 2.16 2.16 2.16h39.743c1.193 0 2.16-.968 2.16-2.16V32.13zM57.044 49.777c-.99 0-1.794-.803-1.794-1.793 0-.992.803-1.795 1.794-1.795.99 0 1.794.8 1.794 1.79s-.804 1.792-1.794 1.792zM30.6 11.334c-.99 0-1.794-.804-1.794-1.794s.804-1.795 1.795-1.795c.99 0 1.8.804 1.8 1.795 0 .99-.804 1.794-1.794 1.794zm-6 0c-.99 0-1.794-.804-1.794-1.794s.804-1.795 1.795-1.795c.99 0 1.8.804 1.8 1.795 0 .99-.804 1.794-1.794 1.794zm-6 0c-.99 0-1.794-.804-1.794-1.794s.804-1.795 1.795-1.795c.99 0 1.8.804 1.8 1.795 0 .99-.804 1.794-1.794 1.794zm-5.4 51.6c-.99 0-1.794-.803-1.794-1.795 0-.99.803-1.8 1.794-1.8s1.794.804 1.794 1.794-.803 1.794-1.794 1.794z"/></svg>