<svg xmlns="http://www.w3.org/2000/svg" width="80" height="90" viewBox="0.5 -1.5 80 90"><path fill="#53ACC9" d="M40.5.25c20.24 0 34.822 8.093 38.23 10.17.004 3.255.02 14.005.02 20.215 0 15.33-5.034 28.527-14.963 39.23-8.094 8.724-17.473 13.603-21.98 15.95-.49.255-.927.48-1.31.686l-1.327-.69C30.04 81.07 2.25 66.65 2.25 30.64c0-6.243.015-17.074.02-20.266C3.597 9.49 6.814 7.51 11.706 5.55 17.74 3.13 27.63.25 40.5.25m0-1.75C14.905-1.5.52 9.457.52 9.457S.5 23.253.5 30.635c0 40.633 34.21 54.484 40 57.865 5.79-3.38 40-17.322 40-57.865 0-7.382-.02-21.18-.02-21.18S64.476-1.5 40.5-1.5z"/><path fill="#53ACC9" d="M19.37 37.75h-4.63v-9.422h-2.422V39.75h7.055v-2zm8.564 0h-4.156v-2.945h3.867V32.82h-3.867v-2.507h4.156V28.33h-6.578v11.42h6.578v-2zm8.898-9.42l-2.164 6.796c-.334 1.198-.53 2.036-.586 2.516-.03-.208-.11-.58-.238-1.113-.128-.54-.252-1.007-.37-1.408l-2.15-6.797H28.88l3.875 11.42h2.64l3.885-11.42h-2.45zm10.46 9.42h-4.155v-2.945h3.867V32.82h-3.867v-2.507h4.156V28.33h-6.578v11.42h6.578v-2zm9.438 0h-4.633v-9.422h-2.423V39.75h7.056v-2zm9.008-9.42l-3.68 2.93 1.164 1.452 1.312-1.055c.155-.125.435-.388.836-.79l-.04 1.19-.02 1.085v6.61h2.413V28.328h-1.985zM21.006 48.31H18.27v8.565h1.816v-3.047h.78c1.06 0 1.88-.244 2.457-.732.576-.488.864-1.193.864-2.115 0-.88-.27-1.55-.812-2-.54-.442-1.33-.67-2.37-.67zm.932 3.7c-.277.22-.695.33-1.254.33h-.598v-2.543h.826c.496 0 .86.102 1.093.305s.35.52.35.943c0 .422-.14.743-.417.964zm7.505-2.313c.312 0 .63.057.955.17.324.113.646.246.967.398l.586-1.478c-.84-.402-1.67-.604-2.502-.604-.816 0-1.528.18-2.136.536-.61.35-1.073.87-1.397 1.54-.323.67-.485 1.45-.485 2.34 0 1.41.33 2.5.99 3.252s1.613 1.134 2.86 1.134c.866 0 1.65-.146 2.354-.44v-1.52c-.854.3-1.583.45-2.185.45-1.435 0-2.15-.954-2.15-2.864 0-.918.187-1.635.56-2.147s.906-.775 1.59-.775zm4.008 7.178h1.82V48.31h-1.82v8.565zm10.53-8.565h-2.69v8.562h2.426c1.517 0 2.675-.375 3.478-1.125.805-.75 1.206-1.83 1.206-3.24 0-1.325-.39-2.355-1.16-3.095-.778-.74-1.866-1.107-3.26-1.107zm-.093 7.062h-.778v-5.578h.966c1.625 0 2.438.92 2.438 2.76 0 1.88-.875 2.818-2.625 2.818zm9.253-3.445c-.606-.29-.99-.49-1.15-.6s-.28-.23-.355-.35c-.073-.117-.11-.257-.11-.417 0-.257.09-.466.274-.626s.444-.24.79-.24c.29 0 .582.037.88.11.3.074.678.206 1.135.394l.587-1.41c-.44-.192-.864-.34-1.27-.446-.403-.104-.83-.158-1.272-.158-.905 0-1.616.217-2.13.65s-.77 1.03-.77 1.787c0 .406.076.758.232 1.06s.364.563.626.79.654.463 1.178.71c.56.265.93.46 1.11.58.18.12.32.246.413.377.092.132.14.28.14.448 0 .3-.106.527-.32.68-.213.153-.52.23-.917.23-.332 0-.7-.055-1.1-.16-.4-.103-.89-.286-1.47-.544v1.688c.705.344 1.514.516 2.428.516.993 0 1.77-.223 2.325-.668.556-.445.835-1.055.835-1.828 0-.56-.15-1.03-.446-1.415-.298-.384-.846-.77-1.647-1.152zm6.61 0c-.607-.29-.99-.49-1.153-.6-.16-.114-.28-.23-.353-.35-.072-.117-.11-.257-.11-.417 0-.257.093-.466.275-.626.183-.16.446-.24.79-.24.29 0 .583.037.882.11.3.074.676.206 1.133.394l.585-1.41c-.44-.192-.863-.34-1.27-.446-.403-.104-.83-.158-1.272-.158-.905 0-1.616.217-2.13.65s-.77 1.03-.77 1.787c0 .406.077.758.233 1.06s.367.563.63.79.653.463 1.177.71c.56.265.93.46 1.11.58s.32.246.413.377c.093.132.14.28.14.448 0 .3-.105.527-.318.68-.214.153-.52.23-.92.23-.33 0-.696-.055-1.1-.16s-.89-.286-1.466-.544v1.688c.704.344 1.513.516 2.427.516.994 0 1.77-.223 2.325-.668s.835-1.055.835-1.828c0-.56-.15-1.03-.447-1.415s-.847-.77-1.648-1.152z"/></svg>