<svg xmlns="http://www.w3.org/2000/svg" width="74" height="102" viewBox="0 0 74 102"><path fill-rule="evenodd" clip-rule="evenodd" fill="#76B86F" d="M65 35.006h-2.067v-8.073C62.933 12.61 51.323 1 37 1S11.067 12.61 11.067 26.933v8.073H9c-4.418 0-8 3.582-8 8v32c0 4.417 3.582 8 8 8h56c4.418 0 8-3.583 8-8v-32c0-4.418-3.582-8-8-8zm-45.05-8.12C19.95 17.473 27.585 9.84 37 9.84s17.05 7.634 17.05 17.05v8.118h-34.1v-8.12zM71 75.006c0 3.31-2.69 6-6 6H9c-3.31 0-6-2.69-6-6v-32c0-3.31 2.69-6 6-6h56c3.31 0 6 2.69 6 6v32zM26.088 59.114c-1.21-.578-1.98-.98-2.303-1.2s-.56-.454-.71-.692-.222-.517-.222-.837c0-.516.184-.934.55-1.254s.896-.48 1.583-.48c.578 0 1.166.077 1.764.226s1.354.41 2.268.785l1.172-2.824c-.883-.383-1.73-.68-2.537-.89s-1.658-.317-2.55-.317c-1.81 0-3.23.433-4.26 1.3s-1.54 2.06-1.54 3.574c0 .806.156 1.51.47 2.11s.73 1.13 1.253 1.58 1.31.928 2.355 1.42c1.12.53 1.86.918 2.227 1.16s.64.494.826.756.28.56.28.894c0 .602-.212 1.055-.64 1.36s-1.035.456-1.832.456c-.663 0-1.395-.105-2.196-.316s-1.78-.573-2.936-1.09v3.376c1.406.687 3.023 1.03 4.852 1.03 1.983 0 3.532-.445 4.645-1.336s1.67-2.11 1.67-3.655c0-1.12-.294-2.06-.89-2.83s-1.69-1.54-3.29-2.307zm13.22 0c-1.212-.578-1.98-.98-2.304-1.2s-.56-.454-.71-.692-.222-.517-.222-.837c0-.516.184-.934.55-1.254s.896-.48 1.583-.48c.578 0 1.166.077 1.764.226s1.35.41 2.262.785l1.172-2.824c-.884-.383-1.73-.68-2.538-.89s-1.66-.317-2.55-.317c-1.81 0-3.23.433-4.26 1.3s-1.54 2.06-1.54 3.574c0 .806.155 1.51.47 2.11s.73 1.13 1.252 1.58 1.31.928 2.354 1.42c1.117.53 1.857.918 2.22 1.16s.64.494.827.756.28.56.28.894c0 .602-.21 1.055-.638 1.36s-1.038.456-1.835.456c-.664 0-1.396-.105-2.197-.316s-1.78-.573-2.935-1.09v3.376c1.405.687 3.022 1.03 4.85 1.03 1.985 0 3.534-.445 4.647-1.336s1.67-2.11 1.67-3.655c0-1.12-.297-2.06-.89-2.83S40.9 59.88 39.3 59.112zm10.92-7.242h-3.632v17.134h10.582v-3h-6.95V51.872zM5.035 93.828c.312 0 .63.057.955.17s.645.246.966.398l.586-1.477c-.84-.406-1.676-.608-2.508-.608-.816 0-1.528.18-2.136.537s-1.073.873-1.397 1.543-.48 1.45-.48 2.34c0 1.414.33 2.5.99 3.256s1.613 1.132 2.86 1.132c.866 0 1.65-.145 2.354-.438V99.16c-.855.3-1.583.45-2.185.45-1.435 0-2.15-.955-2.15-2.865 0-.918.187-1.633.56-2.146s.905-.778 1.588-.778zm4.008 7.178h4.934v-1.5H10.86v-2.21h2.9V95.81h-2.9v-1.88h3.116v-1.49H9.042v8.567zm12.223-4.654c.277-.39.416-.84.416-1.344 0-.863-.278-1.506-.837-1.93s-1.42-.637-2.584-.637H15.77v8.57h1.816v-3.29h.967l2.045 3.286h2.018c-.39-.562-1.23-1.807-2.52-3.732.508-.222.9-.53 1.178-.92zm-1.828-.395c-.273.19-.697.287-1.27.287h-.587V93.93h.55c.59 0 1.02.085 1.3.257s.42.46.42.867c0 .41-.14.71-.41.902zm3.41-2.004h2.326v7.056h1.816v-7.06h2.325v-1.515h-6.47v1.512zm7.787 7.056h1.816v-8.57h-1.81V101zm3.972 0h1.787v-3.39H39.3v-1.486h-2.906v-2.21h3.123V92.44h-4.91v8.565zm6.586 0h1.816v-8.57h-1.82V101zm7.612-7.18c.312 0 .63.055.955.17s.645.244.966.4l.586-1.48c-.84-.404-1.676-.606-2.508-.606-.816 0-1.528.18-2.136.537s-1.073.873-1.397 1.543-.48 1.45-.48 2.34c0 1.414.33 2.5.99 3.256s1.613 1.133 2.86 1.133c.866 0 1.65-.145 2.354-.438V99.16c-.855.3-1.584.45-2.186.45-1.434 0-2.15-.955-2.15-2.865 0-.918.188-1.633.562-2.146s.904-.778 1.59-.778zm5.953-1.426l-3.023 8.602h1.957l.622-2.04h3.123l.62 2.04h1.958l-3.035-8.603h-2.22zm.012 5.04c.608-1.974.978-3.21 1.106-3.71.03.14.083.332.155.574s.4 1.287.97 3.135h-2.23zm5.483-3.493h2.326v7.057h1.81v-7.06h2.326v-1.513h-6.47v1.512zm7.787 7.057h4.934v-1.5h-3.117V97.3h2.9v-1.49h-2.9v-1.88h3.117v-1.49H68.04v8.567z"/></svg>