<svg xmlns="http://www.w3.org/2000/svg" width="97" height="73" viewBox="0 0 97 73"><path fill-rule="evenodd" clip-rule="evenodd" fill="#71B4D5" d="M2 72.09v-1h9.998V52.675c0-1.988 1.612-3.6 3.6-3.6h65.8c1.988 0 3.6 1.61 3.6 3.6V71.09H95v1H2zm80.006-17.845c0-1.19-.967-2.16-2.16-2.16H17.153c-1.193 0-2.16.97-2.16 2.16v16.84h67.013v-16.84zm-62.477.616c.99 0 1.79.81 1.79 1.8s-.805 1.794-1.795 1.794-1.795-.803-1.795-1.794c0-.99.804-1.795 1.795-1.795zm6 0c.99 0 1.79.81 1.79 1.8s-.804 1.794-1.795 1.794-1.795-.803-1.795-1.794c0-.99.804-1.795 1.795-1.795zm6 0c.99 0 1.79.81 1.79 1.8s-.804 1.794-1.795 1.794-1.795-.803-1.795-1.794c0-.99.804-1.795 1.795-1.795zm50.844-32.27c-.215.8-1.037 1.277-1.837 1.06-.8-.21-1.275-1.033-1.06-1.833l1.316-4.92c-6.346 6.35-10.392 14.988-10.806 24.57.004.035.02.065.02.1 0 .837-.676 1.515-1.512 1.515s-1.514-.68-1.514-1.514c0-.14.045-.264.08-.39.467-9.875 4.514-18.803 10.872-25.532l-3.77 1.01c-.802.215-1.624-.26-1.84-1.06-.213-.8.262-1.623 1.062-1.837l9.436-2.53c.32-.175.7-.235 1.085-.133.8.214 1.275 1.036 1.06 1.837l-2.586 9.66zM52.21 11.99L50 8.16V41.41c0 .828-.67 1.5-1.5 1.5-.828 0-1.5-.672-1.5-1.5V8.153l-2.215 3.837c-.414.718-1.332.964-2.05.55-.717-.414-.962-1.33-.548-2.05l4.847-8.395C47.18 1.418 47.78.91 48.5.91s1.32.508 1.466 1.186l4.848 8.396c.414.718.168 1.635-.55 2.05-.717.412-1.635.166-2.05-.55zM28.5 43.08c-.836 0-1.514-.676-1.514-1.512 0-.035.018-.065.02-.1-.414-9.583-4.46-18.223-10.805-24.57l1.32 4.92c.216.8-.26 1.62-1.06 1.836-.8.213-1.62-.262-1.836-1.062l-2.588-9.66c-.214-.8.26-1.62 1.06-1.835.384-.103.765-.042 1.084.133l9.436 2.53c.8.213 1.275 1.035 1.06 1.835-.214.8-1.036 1.275-1.836 1.062l-3.77-1.01c6.356 6.728 10.402 15.656 10.87 25.53.035.127.08.252.08.39-.003.837-.68 1.515-1.517 1.515z"/></svg>